<svg width="32" height="24" viewBox="0 0 32 24" fill="none" xmlns="http://www.w3.org/2000/svg">
<path fill-rule="evenodd" clip-rule="evenodd" d="M11.6735 19.6541H20.3266V4.11319H11.6735V19.6541Z" fill="#FF5F00"/>
<path fill-rule="evenodd" clip-rule="evenodd" d="M12.2229 11.8836C12.2229 8.73077 13.6999 5.92271 16 4.11318C14.318 2.78959 12.1954 2 9.88844 2C4.42709 2 0 6.42486 0 11.8836C0 17.3422 4.42709 21.7673 9.88844 21.7673C12.1954 21.7673 14.318 20.9777 16 19.6541C13.6999 17.8443 12.2229 15.0365 12.2229 11.8836Z" fill="#EB001B"/>
<path fill-rule="evenodd" clip-rule="evenodd" d="M31.6912 18.0082V17.6244H31.591L31.4759 17.8882L31.3605 17.6244H31.2602V18.0082H31.3311V17.7188L31.4391 17.9681H31.5124L31.6206 17.718V18.0082H31.6912ZM31.0567 18.0082V17.69H31.185V17.625H30.8581V17.69H30.9864V18.0082H31.0567ZM32 11.8836C32 17.3422 27.5729 21.7673 22.1116 21.7673C19.8046 21.7673 17.6823 20.9777 16 19.6541C18.3001 17.8443 19.7771 15.0365 19.7771 11.8836C19.7771 8.73077 18.3001 5.92271 16 4.11318C17.6823 2.78959 19.8046 2 22.1116 2C27.5729 2 32 6.42486 32 11.8836Z" fill="#F79E1B"/>
</svg>
