<svg width="28" height="20" viewBox="0 0 28 20" fill="none" xmlns="http://www.w3.org/2000/svg">
<rect width="28" height="20" rx="2" fill="white"/>
<mask id="mask0_9_2266" style="mask-type:luminance" maskUnits="userSpaceOnUse" x="0" y="0" width="28" height="20">
<rect width="28" height="20" rx="2" fill="white"/>
</mask>
<g mask="url(#mask0_9_2266)">
<path fill-rule="evenodd" clip-rule="evenodd" d="M28 0H0V1.33333H28V0ZM28 2.66667H0V4H28V2.66667ZM0 5.33333H28V6.66667H0V5.33333ZM28 8H0V9.33333H28V8ZM0 10.6667H28V12H0V10.6667ZM28 13.3333H0V14.6667H28V13.3333ZM0 16H28V17.3333H0V16ZM28 18.6667H0V20H28V18.6667Z" fill="#D02F44"/>
<rect width="12" height="9.33333" fill="#46467F"/>
<g filter="url(#filter0_d_9_2266)">
<path fill-rule="evenodd" clip-rule="evenodd" d="M2.66666 2.00004C2.66666 2.36823 2.36818 2.66671 1.99999 2.66671C1.63181 2.66671 1.33333 2.36823 1.33333 2.00004C1.33333 1.63185 1.63181 1.33337 1.99999 1.33337C2.36818 1.33337 2.66666 1.63185 2.66666 2.00004ZM5.33333 2.00004C5.33333 2.36823 5.03485 2.66671 4.66666 2.66671C4.29847 2.66671 3.99999 2.36823 3.99999 2.00004C3.99999 1.63185 4.29847 1.33337 4.66666 1.33337C5.03485 1.33337 5.33333 1.63185 5.33333 2.00004ZM7.33333 2.66671C7.70152 2.66671 8 2.36823 8 2.00004C8 1.63185 7.70152 1.33337 7.33333 1.33337C6.96514 1.33337 6.66666 1.63185 6.66666 2.00004C6.66666 2.36823 6.96514 2.66671 7.33333 2.66671ZM10.6667 2.00004C10.6667 2.36823 10.3682 2.66671 10 2.66671C9.63181 2.66671 9.33333 2.36823 9.33333 2.00004C9.33333 1.63185 9.63181 1.33337 10 1.33337C10.3682 1.33337 10.6667 1.63185 10.6667 2.00004ZM3.33333 4.00004C3.70152 4.00004 3.99999 3.70156 3.99999 3.33337C3.99999 2.96518 3.70152 2.66671 3.33333 2.66671C2.96514 2.66671 2.66666 2.96518 2.66666 3.33337C2.66666 3.70156 2.96514 4.00004 3.33333 4.00004ZM6.66666 3.33337C6.66666 3.70156 6.36818 4.00004 5.99999 4.00004C5.6318 4.00004 5.33333 3.70156 5.33333 3.33337C5.33333 2.96518 5.6318 2.66671 5.99999 2.66671C6.36818 2.66671 6.66666 2.96518 6.66666 3.33337ZM8.66666 4.00004C9.03485 4.00004 9.33333 3.70156 9.33333 3.33337C9.33333 2.96518 9.03485 2.66671 8.66666 2.66671C8.29847 2.66671 7.99999 2.96518 7.99999 3.33337C7.99999 3.70156 8.29847 4.00004 8.66666 4.00004ZM10.6667 4.66671C10.6667 5.0349 10.3682 5.33337 10 5.33337C9.63181 5.33337 9.33333 5.0349 9.33333 4.66671C9.33333 4.29852 9.63181 4.00004 10 4.00004C10.3682 4.00004 10.6667 4.29852 10.6667 4.66671ZM7.33333 5.33337C7.70152 5.33337 8 5.0349 8 4.66671C8 4.29852 7.70152 4.00004 7.33333 4.00004C6.96514 4.00004 6.66666 4.29852 6.66666 4.66671C6.66666 5.0349 6.96514 5.33337 7.33333 5.33337ZM5.33333 4.66671C5.33333 5.0349 5.03485 5.33337 4.66666 5.33337C4.29847 5.33337 3.99999 5.0349 3.99999 4.66671C3.99999 4.29852 4.29847 4.00004 4.66666 4.00004C5.03485 4.00004 5.33333 4.29852 5.33333 4.66671ZM1.99999 5.33337C2.36818 5.33337 2.66666 5.0349 2.66666 4.66671C2.66666 4.29852 2.36818 4.00004 1.99999 4.00004C1.63181 4.00004 1.33333 4.29852 1.33333 4.66671C1.33333 5.0349 1.63181 5.33337 1.99999 5.33337ZM3.99999 6.00004C3.99999 6.36823 3.70152 6.66671 3.33333 6.66671C2.96514 6.66671 2.66666 6.36823 2.66666 6.00004C2.66666 5.63185 2.96514 5.33337 3.33333 5.33337C3.70152 5.33337 3.99999 5.63185 3.99999 6.00004ZM5.99999 6.66671C6.36818 6.66671 6.66666 6.36823 6.66666 6.00004C6.66666 5.63185 6.36818 5.33337 5.99999 5.33337C5.6318 5.33337 5.33333 5.63185 5.33333 6.00004C5.33333 6.36823 5.6318 6.66671 5.99999 6.66671ZM9.33333 6.00004C9.33333 6.36823 9.03485 6.66671 8.66666 6.66671C8.29847 6.66671 7.99999 6.36823 7.99999 6.00004C7.99999 5.63185 8.29847 5.33337 8.66666 5.33337C9.03485 5.33337 9.33333 5.63185 9.33333 6.00004ZM10 8.00004C10.3682 8.00004 10.6667 7.70156 10.6667 7.33337C10.6667 6.96518 10.3682 6.66671 10 6.66671C9.63181 6.66671 9.33333 6.96518 9.33333 7.33337C9.33333 7.70156 9.63181 8.00004 10 8.00004ZM8 7.33337C8 7.70156 7.70152 8.00004 7.33333 8.00004C6.96514 8.00004 6.66666 7.70156 6.66666 7.33337C6.66666 6.96518 6.96514 6.66671 7.33333 6.66671C7.70152 6.66671 8 6.96518 8 7.33337ZM4.66666 8.00004C5.03485 8.00004 5.33333 7.70156 5.33333 7.33337C5.33333 6.96518 5.03485 6.66671 4.66666 6.66671C4.29847 6.66671 3.99999 6.96518 3.99999 7.33337C3.99999 7.70156 4.29847 8.00004 4.66666 8.00004ZM2.66666 7.33337C2.66666 7.70156 2.36818 8.00004 1.99999 8.00004C1.63181 8.00004 1.33333 7.70156 1.33333 7.33337C1.33333 6.96518 1.63181 6.66671 1.99999 6.66671C2.36818 6.66671 2.66666 6.96518 2.66666 7.33337Z" fill="url(#paint0_linear_9_2266)"/>
</g>
</g>
<defs>
<filter id="filter0_d_9_2266" x="1.33333" y="1.33337" width="9.33333" height="7.66663" filterUnits="userSpaceOnUse" color-interpolation-filters="sRGB">
<feFlood flood-opacity="0" result="BackgroundImageFix"/>
<feColorMatrix in="SourceAlpha" type="matrix" values="0 0 0 0 0 0 0 0 0 0 0 0 0 0 0 0 0 0 127 0" result="hardAlpha"/>
<feOffset dy="1"/>
<feColorMatrix type="matrix" values="0 0 0 0 0 0 0 0 0 0 0 0 0 0 0 0 0 0 0.06 0"/>
<feBlend mode="normal" in2="BackgroundImageFix" result="effect1_dropShadow_9_2266"/>
<feBlend mode="normal" in="SourceGraphic" in2="effect1_dropShadow_9_2266" result="shape"/>
</filter>
<linearGradient id="paint0_linear_9_2266" x1="1.33333" y1="1.33337" x2="1.33333" y2="8.00004" gradientUnits="userSpaceOnUse">
<stop stop-color="white"/>
<stop offset="1" stop-color="#F0F0F0"/>
</linearGradient>
</defs>
</svg>
