<svg width="24" height="25" viewBox="0 0 24 25" fill="none" xmlns="http://www.w3.org/2000/svg">
<g clip-path="url(#clip0_9_2305)">
<path d="M7.0753 8.6506H9.9506V5.7753V2.89999H7.0753H4.2V5.7753H7.0753V8.6506Z" fill="white"/>
<path d="M16.0103 12.2652V11.8137C18.828 11.4199 19.5612 9.55652 19.5612 7.72348C19.5612 5.45414 18.0099 2.99998 14.1712 2.90909H11.8655V5.7753H14.1712C16.1981 5.80863 16.6283 7.12357 16.595 8.15977C16.5253 10.4806 15.4831 10.5473 13.6894 10.5988H7.0753V22.1H13.95C18.5735 22.1 20.1248 19.4792 20.1248 16.7433C20.1248 14.4042 19.3067 12.6863 16.0103 12.2622V12.2652ZM14.0348 19.2035H10.0021V13.3953H14.0348C16.4708 13.3953 17.2555 13.8558 17.2555 16.3464C17.2555 18.44 16.4708 19.2005 14.0348 19.2005V19.2035Z" fill="white"/>
</g>
<defs>
<clipPath id="clip0_9_2305">
<rect width="15.9248" height="19.2" fill="white" transform="translate(4.2 2.89999)"/>
</clipPath>
</defs>
</svg>
