<svg width="24" height="24" viewBox="0 0 24 24" fill="none" xmlns="http://www.w3.org/2000/svg">
<g clip-path="url(#clip0_9_273)">
<g clip-path="url(#clip1_9_273)">
<path d="M19.0001 14.8333L18.0835 13.25C17.9168 12.9167 17.6668 12.25 17.6668 11.8333V9.41667C17.6668 7 16.1668 5 14.0001 4.16667C13.5835 3.41667 12.8335 3 12.0001 3C11.1668 3 10.4168 3.41667 10.0001 4.16667C7.91679 5 6.41679 7 6.41679 9.41667V11.8333C6.41679 12.25 6.25012 12.9167 6.00012 13.25L5.00012 14.8333C4.58346 15.5 4.50012 16.1667 4.75012 16.8333C5.00012 17.5 5.50012 18 6.25012 18.1667C7.16679 18.5 8.08346 18.6667 9.00012 18.8333C9.16679 19.25 9.41679 19.75 9.75012 20.0833C10.3335 20.6667 11.1668 21 12.0001 21C13.4168 21 14.5001 20.0833 14.9168 18.8333C15.8335 18.6667 16.7501 18.4167 17.6668 18.1667C18.3335 17.9167 18.8335 17.4167 19.0835 16.8333C19.4168 16.1667 19.3335 15.4167 19.0001 14.8333ZM12.0001 19.75C11.5001 19.75 11.0001 19.5833 10.6668 19.1667C10.5835 19.0833 10.5835 19.0833 10.5835 19C11.0835 19 11.5835 19.0833 12.0001 19.0833C12.5001 19.0833 13.0001 19.0833 13.4168 19C13.0835 19.5 12.5835 19.75 12.0001 19.75ZM18.0001 16.3333C17.9168 16.6667 17.6668 16.8333 17.3335 16.9167C13.8335 18.0833 10.1668 18.0833 6.66679 16.9167C6.33346 16.8333 6.08346 16.5833 6.00012 16.3333C5.91679 16.0833 5.91679 15.75 6.16679 15.4167L7.16679 13.8333C7.50012 13.3333 7.75012 12.4167 7.75012 11.8333V9.41667C7.75012 7.33333 9.16679 5.66667 11.0835 5.16667C11.6668 5.08333 12.2501 5 12.8335 5.08333C13.0001 5.08333 13.1668 5.16667 13.3335 5.16667C15.1668 5.66667 16.5835 7.33333 16.5835 9.33333V11.75C16.5835 12.3333 16.8335 13.25 17.1668 13.75L18.0835 15.3333C18.0835 15.75 18.0835 16.0833 18.0001 16.3333Z" fill="black"/>
</g>
</g>
<defs>
<clipPath id="clip0_9_273">
<rect width="24" height="24" fill="white"/>
</clipPath>
<clipPath id="clip1_9_273">
<rect width="24" height="24" fill="white"/>
</clipPath>
</defs>
</svg>
