<svg width="25" height="24" viewBox="0 0 25 24" fill="none" xmlns="http://www.w3.org/2000/svg">
<g clip-path="url(#clip0_9_2000)">
<path d="M5.5 4.75C5.5 4.33579 5.83578 4 6.25 4C6.66421 4 7 4.33579 7 4.75L7 19.25C7 19.6642 6.66421 20 6.25 20C5.83579 20 5.5 19.6642 5.5 19.25L5.5 4.75Z" fill="black"/>
<path fill-rule="evenodd" clip-rule="evenodd" d="M19.2761 4.22595C19.5746 4.52721 19.5746 5.01565 19.2761 5.31691L12.6623 12L19.2761 18.6831C19.5746 18.9843 19.5746 19.4728 19.2761 19.7741C18.9775 20.0753 18.4935 20.0753 18.195 19.7741L10.5 12L18.195 4.22595C18.4935 3.92468 18.9775 3.92468 19.2761 4.22595Z" fill="black"/>
</g>
<defs>
<clipPath id="clip0_9_2000">
<rect width="24" height="24" fill="white" transform="translate(0.5)"/>
</clipPath>
</defs>
</svg>
