<svg width="32" height="32" viewBox="0 0 32 32" fill="none" xmlns="http://www.w3.org/2000/svg">
<rect width="32" height="32" rx="8" fill="#051060"/>
<path d="M25 11.28V9C25 7.9 24.1 7 23 7H9C7.89 7 7 7.9 7 9V23C7 24.1 7.89 25 9 25H23C24.1 25 25 24.1 25 23V20.72C25.59 20.37 26 19.74 26 19V13C26 12.26 25.59 11.63 25 11.28ZM24 13V19H17V13H24ZM9 23V9H23V11H17C15.9 11 15 11.9 15 13V19C15 20.1 15.9 21 17 21H23V23H9Z" fill="white"/>
<path d="M20 17.5C20.8284 17.5 21.5 16.8284 21.5 16C21.5 15.1716 20.8284 14.5 20 14.5C19.1716 14.5 18.5 15.1716 18.5 16C18.5 16.8284 19.1716 17.5 20 17.5Z" fill="white"/>
</svg>
