<svg width="24" height="24" viewBox="0 0 24 24" fill="none" xmlns="http://www.w3.org/2000/svg">
<g clip-path="url(#clip0_9_209071)">
<g clip-path="url(#clip1_9_209071)">
<path d="M17.7722 5.04497C18.0988 4.71835 18.6284 4.71835 18.955 5.04497C19.2816 5.37159 19.2816 5.90114 18.955 6.22777L13.1828 12L18.955 17.7722C19.2816 18.0989 19.2816 18.6284 18.955 18.955C18.6284 19.2817 18.0988 19.2817 17.7722 18.955L12 13.1828L6.22775 18.955C5.90113 19.2817 5.37157 19.2817 5.04495 18.955C4.71833 18.6284 4.71833 18.0989 5.04495 17.7722L10.8172 12L5.04495 6.22776C4.71833 5.90114 4.71833 5.37159 5.04495 5.04497C5.37157 4.71835 5.90113 4.71835 6.22775 5.04497L12 10.8172L17.7722 5.04497Z" fill="black"/>
</g>
</g>
<defs>
<clipPath id="clip0_9_209071">
<rect width="24" height="24" fill="white"/>
</clipPath>
<clipPath id="clip1_9_209071">
<rect width="24" height="24" fill="white"/>
</clipPath>
</defs>
</svg>
