<svg width="16" height="17" viewBox="0 0 16 17" fill="none" xmlns="http://www.w3.org/2000/svg">
<g clip-path="url(#clip0_9_210915)">
<path d="M7.33332 4.5C8.25332 4.5 9.08666 4.87333 9.69332 5.47333L7.99999 7.16667H12V3.16667L10.6333 4.53333C9.78666 3.68667 8.61999 3.16667 7.33332 3.16667C4.97999 3.16667 3.04666 4.90667 2.71999 7.16667H4.06666C4.37332 5.64667 5.71999 4.5 7.33332 4.5ZM11.0933 10.5933C11.5333 9.99334 11.84 9.28 11.9467 8.5H10.6C10.2933 10.02 8.94666 11.1667 7.33332 11.1667C6.41332 11.1667 5.57999 10.7933 4.97332 10.1933L6.66666 8.5H2.66666V12.5L4.03332 11.1333C4.87999 11.98 6.04666 12.5 7.33332 12.5C8.36666 12.5 9.31999 12.16 10.0933 11.5933L13.3333 14.8267L14.3267 13.8333L11.0933 10.5933Z" fill="black"/>
</g>
<defs>
<clipPath id="clip0_9_210915">
<rect width="16" height="16" fill="white" transform="translate(0 0.5)"/>
</clipPath>
</defs>
</svg>
