<svg width="24" height="24" viewBox="0 0 24 24" fill="none" xmlns="http://www.w3.org/2000/svg">
<g clip-path="url(#clip0_9_2453)">
<path d="M16.4082 3.48148V2.74074C16.4082 2.37037 16.1327 2 15.6735 2C15.2143 2 14.9388 2.37037 14.9388 2.74074V3.48148H9.06123V2.74074C9.06123 2.37037 8.78572 2 8.32653 2C7.86735 2 7.59184 2.37037 7.59184 2.74074V3.48148C4.65306 3.75926 3 5.61111 3 8.75926V16.6296C3 20.0556 4.92857 22 8.32653 22H15.6735C19.0714 22 21 20.0556 21 16.6296V8.75926C21 5.61111 19.2551 3.75926 16.4082 3.48148ZM7.59184 4.87037V5.51852C7.59184 5.88889 7.86735 6.25926 8.32653 6.25926C8.78572 6.25926 9.06123 5.88889 9.06123 5.51852V4.87037H15.0306V5.51852C15.0306 5.88889 15.3061 6.25926 15.7653 6.25926C16.2245 6.25926 16.5 5.98148 16.5 5.51852V4.87037C18.6122 5.05556 19.6224 6.35185 19.7143 8.57407H4.46939C4.46939 6.35185 5.57143 5.05556 7.59184 4.87037ZM15.6735 20.6111H8.32653C5.66327 20.6111 4.46939 19.3148 4.46939 16.7222V9.96296H19.6224V16.6296C19.5306 19.3148 18.3367 20.6111 15.6735 20.6111Z" fill="black"/>
<path d="M12 12.6481C11.449 12.6481 11.0816 13.0185 11.0816 13.5741C11.0816 14.1296 11.5408 14.5 12 14.5C12.4592 14.5 12.9184 14.1296 12.9184 13.5741C12.9184 13.0185 12.551 12.6481 12 12.6481Z" fill="black"/>
<path d="M8.60204 12.6481C8.05102 12.6481 7.68367 13.0185 7.68367 13.5741C7.68367 14.1296 8.14286 14.5 8.60204 14.5C9.06123 14.5 9.52041 14.1296 9.52041 13.5741C9.52041 13.0185 9.15306 12.6481 8.60204 12.6481Z" fill="black"/>
<path d="M8.60204 15.4259C8.05102 15.4259 7.68367 15.7963 7.68367 16.3519C7.68367 16.9074 8.14286 17.2778 8.60204 17.2778C9.06123 17.2778 9.52041 16.9074 9.52041 16.3519C9.52041 15.7963 9.15306 15.4259 8.60204 15.4259Z" fill="black"/>
</g>
<defs>
<clipPath id="clip0_9_2453">
<rect width="24" height="24" fill="white"/>
</clipPath>
</defs>
</svg>
