<svg width="25" height="24" viewBox="0 0 25 24" fill="none" xmlns="http://www.w3.org/2000/svg">
<g clip-path="url(#clip0_9_2030)">
<path d="M19.5 19.25C19.5 19.6642 19.1642 20 18.75 20C18.3358 20 18 19.6642 18 19.25L18 4.75C18 4.33579 18.3358 4 18.75 4C19.1642 4 19.5 4.33579 19.5 4.75L19.5 19.25Z" fill="black"/>
<path fill-rule="evenodd" clip-rule="evenodd" d="M5.72391 19.7741C5.42536 19.4728 5.42536 18.9844 5.72391 18.6831L12.3377 12L5.72391 5.31691C5.42536 5.01565 5.42536 4.52721 5.72391 4.22595C6.02245 3.92468 6.50649 3.92468 6.80504 4.22595L14.5 12L6.80504 19.7741C6.5065 20.0753 6.02246 20.0753 5.72391 19.7741Z" fill="black"/>
</g>
<defs>
<clipPath id="clip0_9_2030">
<rect width="24" height="24" fill="white" transform="translate(0.5)"/>
</clipPath>
</defs>
</svg>
