<svg width="24" height="24" viewBox="0 0 24 24" fill="none" xmlns="http://www.w3.org/2000/svg">
<g clip-path="url(#clip0_9_1129)">
<path fill-rule="evenodd" clip-rule="evenodd" d="M12 2.2C6.60001 2.2 2.20001 6.6 2.20001 12C2.20001 17.4 6.60001 21.8 12 21.8C17.4 21.8 21.8 17.4 21.8 12C21.8 6.6 17.4 2.2 12 2.2ZM12 20.2C7.40001 20.2 3.80001 16.5 3.80001 12C3.80001 7.4 7.50001 3.8 12 3.8C16.6 3.8 20.2 7.5 20.2 12C20.2 16.6 16.6 20.2 12 20.2Z" fill="#1C3FCA"/>
<path fill-rule="evenodd" clip-rule="evenodd" d="M13 16H12.8V10.6C12.8 10.2 12.5 9.8 12 9.8H11C10.6 9.8 10.2 10.1 10.2 10.6C10.2 11.1 10.5 11.4 11 11.4H11.2V16.8C11.2 17.2 11.5 17.6 12 17.6H13C13.4 17.6 13.8 17.3 13.8 16.8C13.8 16.3 13.4 16 13 16Z" fill="#1C3FCA"/>
<path d="M11.8 8.3C12.3523 8.3 12.8 7.85229 12.8 7.3C12.8 6.74772 12.3523 6.3 11.8 6.3C11.2477 6.3 10.8 6.74772 10.8 7.3C10.8 7.85229 11.2477 8.3 11.8 8.3Z" fill="#1C3FCA"/>
</g>
<defs>
<clipPath id="clip0_9_1129">
<rect width="24" height="24" fill="white"/>
</clipPath>
</defs>
</svg>
