<svg width="16" height="17" viewBox="0 0 16 17" fill="none" xmlns="http://www.w3.org/2000/svg">
<g clip-path="url(#clip0_9_210083)">
<path d="M8 1.83337C4.35802 1.83337 1.33333 4.81012 1.33333 8.46903C1.33333 12.1279 4.35802 15.1667 8 15.1667C11.642 15.1667 14.6667 12.1279 14.6667 8.46903C14.6667 4.81012 11.642 1.83337 8 1.83337ZM8 14.2365C4.85185 14.2365 2.32098 11.6938 2.32098 8.53105C2.32098 5.36826 4.85185 2.76361 8 2.76361C11.1481 2.76361 13.679 5.30624 13.679 8.46903C13.679 11.6318 11.1481 14.2365 8 14.2365Z" fill="black"/>
<path d="M7.99999 9.58535C8.24691 9.58535 8.49382 9.39931 8.49382 9.08923V5.98845C8.49382 5.74039 8.30863 5.49233 7.99999 5.49233C7.69135 5.49233 7.50616 5.74039 7.50616 5.98845V9.08923C7.50616 9.33729 7.75308 9.58535 7.99999 9.58535Z" fill="black"/>
<path d="M8 10.3295C7.62963 10.3295 7.38272 10.5776 7.38272 10.9497C7.38272 11.3218 7.69136 11.5698 8 11.5698C8.30864 11.5698 8.61729 11.3218 8.61729 10.9497C8.61729 10.5776 8.37037 10.3295 8 10.3295Z" fill="black"/>
</g>
<defs>
<clipPath id="clip0_9_210083">
<rect width="16" height="16" fill="white" transform="translate(0 0.5)"/>
</clipPath>
</defs>
</svg>
