<svg width="24" height="24" viewBox="0 0 24 24" fill="none" xmlns="http://www.w3.org/2000/svg">
<g clip-path="url(#clip0_9_208968)">
<path d="M18 11.3H12.8V6C12.8 5.6 12.5 5.2 12 5.2C11.5 5.2 11.2 5.6 11.2 6V11.2H6C5.6 11.2 5.2 11.5 5.2 12C5.2 12.5 5.5 12.8 6 12.8H11.2V18C11.2 18.4 11.5 18.8 12 18.8C12.5 18.8 12.8 18.5 12.8 18V12.8H18C18.4 12.8 18.8 12.5 18.8 12C18.8 11.5 18.4 11.3 18 11.3Z" fill="white"/>
</g>
<defs>
<clipPath id="clip0_9_208968">
<rect width="24" height="24" fill="white"/>
</clipPath>
</defs>
</svg>
