<svg width="20" height="20" viewBox="0 0 20 20" fill="none" xmlns="http://www.w3.org/2000/svg">
<g clip-path="url(#clip0_9_209992)">
<path d="M10 1.66663C5.44755 1.66663 1.66669 5.38756 1.66669 9.9612C1.66669 14.5348 5.44755 18.3333 10 18.3333C14.5525 18.3333 18.3334 14.5348 18.3334 9.9612C18.3334 5.38756 14.5525 1.66663 10 1.66663ZM10 17.1705C6.06484 17.1705 2.90126 13.9922 2.90126 10.0387C2.90126 6.08523 6.06484 2.82942 10 2.82942C13.9352 2.82942 17.0988 6.00771 17.0988 9.9612C17.0988 13.9147 13.9352 17.1705 10 17.1705Z" fill="black"/>
<path fill-rule="evenodd" clip-rule="evenodd" d="M12.5545 6.66219C12.7708 6.44588 13.1215 6.44588 13.3378 6.66219C13.5541 6.87849 13.5541 7.22918 13.3378 7.44548L10.7833 9.99996L13.3378 12.5544C13.5541 12.7707 13.5541 13.1214 13.3378 13.3377C13.1215 13.554 12.7708 13.554 12.5545 13.3377L10 10.7833L7.44554 13.3377C7.22924 13.554 6.87855 13.554 6.66225 13.3377C6.44595 13.1214 6.44595 12.7707 6.66225 12.5544L9.21673 9.99996L6.66225 7.44548C6.44595 7.22918 6.44595 6.87849 6.66225 6.66218C6.87855 6.44588 7.22924 6.44588 7.44554 6.66219L10 9.21667L12.5545 6.66219Z" fill="black"/>
</g>
<defs>
<clipPath id="clip0_9_209992">
<rect width="20" height="20" fill="white"/>
</clipPath>
</defs>
</svg>
