<svg width="16" height="16" viewBox="0 0 16 16" fill="none" xmlns="http://www.w3.org/2000/svg">
<g clip-path="url(#clip0_9_208911)">
<path d="M7.33329 4.00001C8.25329 4.00001 9.08663 4.37334 9.69329 4.97334L7.99996 6.66667H12V2.66667L10.6333 4.03334C9.78663 3.18667 8.61996 2.66667 7.33329 2.66667C4.97996 2.66667 3.04663 4.40667 2.71996 6.66667H4.06663C4.37329 5.14667 5.71996 4.00001 7.33329 4.00001ZM11.0933 10.0933C11.5333 9.49334 11.84 8.78001 11.9466 8.00001H10.6C10.2933 9.52001 8.94663 10.6667 7.33329 10.6667C6.41329 10.6667 5.57996 10.2933 4.97329 9.69334L6.66663 8.00001H2.66663V12L4.03329 10.6333C4.87996 11.48 6.04663 12 7.33329 12C8.36663 12 9.31996 11.66 10.0933 11.0933L13.3333 14.3267L14.3266 13.3333L11.0933 10.0933Z" fill="#7B61FF"/>
</g>
<defs>
<clipPath id="clip0_9_208911">
<rect width="16" height="16" fill="white"/>
</clipPath>
</defs>
</svg>
