<svg width="18" height="18" viewBox="0 0 18 18" fill="none" xmlns="http://www.w3.org/2000/svg">
<path fill-rule="evenodd" clip-rule="evenodd" d="M16.0101 9.33475C15.3526 9.50993 14.6599 9.60317 13.9464 9.60317C9.92977 9.60317 6.44638 6.58936 6.44638 2.60317C6.44638 2.38544 6.45706 2.17005 6.47792 1.95747C3.82819 2.9723 1.94638 5.5401 1.94638 8.54697C1.94638 12.4426 5.10439 15.6006 9 15.6006C12.6293 15.6006 15.6184 12.8596 16.0101 9.33475ZM16.0113 7.76879C15.3675 7.98511 14.672 8.10317 13.9464 8.10317C10.6327 8.10317 7.94638 5.64074 7.94638 2.60317C7.94638 2.2451 7.98371 1.89501 8.055 1.55601C8.1712 1.00343 8.37762 0.480293 8.65966 0C8.04678 0.0239812 7.45046 0.112448 6.87729 0.258806C3.18009 1.20288 0.446381 4.55568 0.446381 8.54697C0.446381 13.271 4.27597 17.1006 9 17.1006C13.6584 17.1006 17.447 13.3768 17.5514 8.74349C17.5529 8.67816 17.5536 8.61265 17.5536 8.54697C17.5536 8.04768 17.5108 7.55839 17.4288 7.08255C16.9956 7.36602 16.5196 7.59802 16.0113 7.76879Z" fill="black"/>
</svg>
