<svg width="24" height="24" viewBox="0 0 24 24" fill="none" xmlns="http://www.w3.org/2000/svg">
<g clip-path="url(#clip0_9_2390)">
<g clip-path="url(#clip1_9_2390)">
<path d="M18 17.4H6C5.33726 17.4 4.8 17.9373 4.8 18.6V19.8C4.8 20.4628 5.33726 21 6 21H18C18.6627 21 19.2 20.4628 19.2 19.8V18.6C19.2 17.9373 18.6627 17.4 18 17.4Z" stroke="black" stroke-width="1.5" stroke-linecap="round" stroke-linejoin="round"/>
<path d="M6.60001 16.8V11.4C6.60001 8.42 9.02001 6 12 6C14.98 6 17.4 8.42 17.4 11.4V16.74" stroke="black" stroke-width="1.5" stroke-linecap="round" stroke-linejoin="round"/>
<path d="M9.3 11.7C9.3 10.21 10.51 9 12 9" stroke="black" stroke-width="1.5" stroke-linecap="round" stroke-linejoin="round"/>
<path d="M3.6 12.6H1.8" stroke="black" stroke-width="1.5" stroke-linecap="round" stroke-linejoin="round"/>
<path d="M12 3.00001V1.20001" stroke="black" stroke-width="1.5" stroke-linecap="round" stroke-linejoin="round"/>
<path d="M22.2 12.6H20.4" stroke="black" stroke-width="1.5" stroke-linecap="round" stroke-linejoin="round"/>
<path d="M18.77 6.19003L20.05 4.91003" stroke="black" stroke-width="1.5" stroke-linecap="round" stroke-linejoin="round"/>
<path d="M5.22 6.19003L3.95 4.91003" stroke="black" stroke-width="1.5" stroke-linecap="round" stroke-linejoin="round"/>
</g>
</g>
<defs>
<clipPath id="clip0_9_2390">
<rect width="24" height="24" fill="white"/>
</clipPath>
<clipPath id="clip1_9_2390">
<rect width="24" height="24" fill="white"/>
</clipPath>
</defs>
</svg>
