<svg width="18" height="7" viewBox="0 0 18 7" fill="none" xmlns="http://www.w3.org/2000/svg">
<path fill-rule="evenodd" clip-rule="evenodd" d="M9.22578 2.64714C9.21605 3.42758 9.92186 3.86343 10.4537 4.12267C11 4.3884 11.1838 4.55907 11.1816 4.79671C11.1773 5.16073 10.7455 5.32113 10.3412 5.32708C9.83956 5.33804 9.34347 5.22014 8.90044 4.98466L8.64643 6.17286C9.14366 6.36642 9.67307 6.46409 10.2067 6.46073C11.6804 6.46073 12.6446 5.73376 12.65 4.60659C12.6535 3.74994 11.9429 3.37699 11.375 3.07892C10.9944 2.87918 10.6779 2.71307 10.6833 2.45757C10.6882 2.26368 10.873 2.05682 11.2778 2.00389C11.7524 1.95844 12.2305 2.04224 12.6613 2.2464L12.9078 1.09708C12.4879 0.939153 12.0431 0.857574 11.5945 0.856201C10.2072 0.856201 9.23172 1.59289 9.22362 2.64822L9.22578 2.64714ZM15.2757 0.955185C15.015 0.95415 14.7797 1.11144 14.6812 1.35269L12.5735 6.37554H14.0462L14.3391 5.5654H16.1388L16.309 6.37554H17.606L16.4711 0.954645H15.2795L15.2757 0.955185ZM15.9109 4.45729L15.4861 2.42007L15.4845 2.41899L14.7468 4.45729H15.9109ZM7.43978 0.954645L6.27893 6.37554H7.68406L8.84438 0.954645H7.43978ZM3.90425 4.64455L5.36343 0.954649H5.36397H6.8372L4.56413 6.37555H3.08117L1.96193 2.04941C1.94142 1.84341 1.81508 1.66294 1.62848 1.57305C1.18805 1.36208 0.722889 1.20712 0.243881 1.11182L0.277387 0.954649H2.66395C2.98702 0.953439 3.26255 1.18818 3.31248 1.50716L3.90425 4.64455Z" fill="white"/>
</svg>
