<svg width="18" height="7" viewBox="0 0 18 7" fill="none" xmlns="http://www.w3.org/2000/svg">
<path fill-rule="evenodd" clip-rule="evenodd" d="M9.22579 2.72087C9.21607 3.50439 9.92188 3.94196 10.4537 4.20223C11 4.469 11.1838 4.64035 11.1816 4.87893C11.1773 5.24439 10.7455 5.40543 10.3413 5.41139C9.83958 5.4224 9.34348 5.30403 8.90045 5.06762L8.64645 6.26052C9.14367 6.45484 9.67308 6.5529 10.2067 6.54952C11.6805 6.54952 12.6446 5.81969 12.65 4.68806C12.6536 3.82803 11.9429 3.4536 11.375 3.15435C10.9944 2.95382 10.6779 2.78705 10.6834 2.53055C10.6882 2.33589 10.873 2.12822 11.2778 2.07508C11.7525 2.02945 12.2305 2.11358 12.6613 2.31854L12.9078 1.16468C12.4879 1.00613 12.0432 0.92423 11.5945 0.922852C10.2072 0.922852 9.23174 1.66245 9.22363 2.72195L9.22579 2.72087ZM15.2757 1.02223C15.015 1.02119 14.7797 1.1791 14.6812 1.4213L12.5735 6.464H14.0462L14.3391 5.65066H16.1388L16.309 6.464H17.6061L16.4711 1.02168H15.2795L15.2757 1.02223ZM15.9109 4.53817L15.4861 2.4929L15.4845 2.49181L14.7468 4.53817H15.9109ZM7.4398 1.02168L6.27894 6.464H7.68408L8.84439 1.02168H7.4398ZM3.90427 4.72617L5.36345 1.02169H5.36399H6.83722L4.56414 6.464H3.08119L1.96194 2.12078C1.94143 1.91396 1.8151 1.73277 1.62849 1.64254C1.18807 1.43073 0.722905 1.27516 0.243896 1.17948L0.277403 1.02169H2.66397C2.98703 1.02047 3.26257 1.25614 3.31249 1.57638L3.90427 4.72617Z" fill="white"/>
</svg>
